<svg xmlns="http://www.w3.org/2000/svg" xmlns:xlink="http://www.w3.org/1999/xlink" width="1080" zoomAndPan="magnify" viewBox="0 0 810 809.999993" height="1080" preserveAspectRatio="xMidYMid meet" version="1.0"><defs><clipPath id="c21bd1cfe3"><path d="M 0 0 L 386.269531 0 L 386.269531 386.269531 L 0 386.269531 Z M 0 0 " clip-rule="nonzero"/></clipPath><clipPath id="7b79dc8ed2"><path d="M 38.25 0 L 348.019531 0 C 358.164062 0 367.894531 4.03125 375.066406 11.203125 C 382.242188 18.375 386.269531 28.105469 386.269531 38.25 L 386.269531 348.019531 C 386.269531 358.164062 382.242188 367.894531 375.066406 375.066406 C 367.894531 382.242188 358.164062 386.269531 348.019531 386.269531 L 38.25 386.269531 C 28.105469 386.269531 18.375 382.242188 11.203125 375.066406 C 4.03125 367.894531 0 358.164062 0 348.019531 L 0 38.25 C 0 28.105469 4.03125 18.375 11.203125 11.203125 C 18.375 4.03125 28.105469 0 38.25 0 Z M 38.25 0 " clip-rule="nonzero"/></clipPath><clipPath id="c8532a53c0"><path d="M 423.730469 0 L 810 0 L 810 386.269531 L 423.730469 386.269531 Z M 423.730469 0 " clip-rule="nonzero"/></clipPath><clipPath id="7891e8d99d"><path d="M 461.980469 0 L 771.75 0 C 781.894531 0 791.625 4.03125 798.796875 11.203125 C 805.96875 18.375 810 28.105469 810 38.25 L 810 348.019531 C 810 358.164062 805.96875 367.894531 798.796875 375.066406 C 791.625 382.242188 781.894531 386.269531 771.75 386.269531 L 461.980469 386.269531 C 451.835938 386.269531 442.105469 382.242188 434.933594 375.066406 C 427.757812 367.894531 423.730469 358.164062 423.730469 348.019531 L 423.730469 38.25 C 423.730469 28.105469 427.757812 18.375 434.933594 11.203125 C 442.105469 4.03125 451.835938 0 461.980469 0 Z M 461.980469 0 " clip-rule="nonzero"/></clipPath><clipPath id="a07767d459"><path d="M 0 423.730469 L 386.269531 423.730469 L 386.269531 810 L 0 810 Z M 0 423.730469 " clip-rule="nonzero"/></clipPath><clipPath id="89ce0feb8b"><path d="M 38.25 423.730469 L 348.019531 423.730469 C 358.164062 423.730469 367.894531 427.757812 375.066406 434.933594 C 382.242188 442.105469 386.269531 451.835938 386.269531 461.980469 L 386.269531 771.75 C 386.269531 781.894531 382.242188 791.625 375.066406 798.796875 C 367.894531 805.96875 358.164062 810 348.019531 810 L 38.25 810 C 28.105469 810 18.375 805.96875 11.203125 798.796875 C 4.03125 791.625 0 781.894531 0 771.75 L 0 461.980469 C 0 451.835938 4.03125 442.105469 11.203125 434.933594 C 18.375 427.757812 28.105469 423.730469 38.25 423.730469 Z M 38.25 423.730469 " clip-rule="nonzero"/></clipPath><clipPath id="eaa282f554"><path d="M 423.730469 423.730469 L 810 423.730469 L 810 810 L 423.730469 810 Z M 423.730469 423.730469 " clip-rule="nonzero"/></clipPath><clipPath id="8d7bdbdc34"><path d="M 461.980469 423.730469 L 771.75 423.730469 C 781.894531 423.730469 791.625 427.757812 798.796875 434.933594 C 805.96875 442.105469 810 451.835938 810 461.980469 L 810 771.75 C 810 781.894531 805.96875 791.625 798.796875 798.796875 C 791.625 805.96875 781.894531 810 771.75 810 L 461.980469 810 C 451.835938 810 442.105469 805.96875 434.933594 798.796875 C 427.757812 791.625 423.730469 781.894531 423.730469 771.75 L 423.730469 461.980469 C 423.730469 451.835938 427.757812 442.105469 434.933594 434.933594 C 442.105469 427.757812 451.835938 423.730469 461.980469 423.730469 Z M 461.980469 423.730469 " clip-rule="nonzero"/></clipPath></defs><g clip-path="url(#c21bd1cfe3)"><g clip-path="url(#7b79dc8ed2)"><path fill="#a56111" d="M 0 0 L 386.269531 0 L 386.269531 386.269531 L 0 386.269531 Z M 0 0 " fill-opacity="1" fill-rule="nonzero"/></g></g><g clip-path="url(#c8532a53c0)"><g clip-path="url(#7891e8d99d)"><path fill="#14a511" d="M 423.730469 0 L 810 0 L 810 386.269531 L 423.730469 386.269531 Z M 423.730469 0 " fill-opacity="1" fill-rule="nonzero"/></g></g><g clip-path="url(#a07767d459)"><g clip-path="url(#89ce0feb8b)"><path fill="#a51111" d="M 0 423.730469 L 386.269531 423.730469 L 386.269531 810 L 0 810 Z M 0 423.730469 " fill-opacity="1" fill-rule="nonzero"/></g></g><g clip-path="url(#eaa282f554)"><g clip-path="url(#8d7bdbdc34)"><path fill="#a59211" d="M 423.730469 423.730469 L 810 423.730469 L 810 810 L 423.730469 810 Z M 423.730469 423.730469 " fill-opacity="1" fill-rule="nonzero"/></g></g></svg>